<svg xmlns="http://www.w3.org/2000/svg" xmlns:v="https://svgstorm.com"
viewBox = "150 150 700 700"
width="1000"
height="1000">
<g fill="None" fill-opacity="0.0" stroke="#FFFFFF" stroke-opacity="1.00" stroke-width="0.3"><path d="
M 0.00 1000.00 
L 1000.00 1000.00
L 1000.00 0.00
L 0.00 0.00
L 0.00 1000.00
M 495.00 340.00 
C 503.50 329.72 511.79 316.89 523.25 307.25 C 534.70 297.60 547.06 290.23 560.08 283.08 C 573.10 275.94 588.41 269.07 602.02 264.02 C 615.64 258.98 635.12 251.58 648.22 248.22 C 661.33 244.87 688.93 234.69 691.99 253.01 C 695.05 271.32 665.69 268.43 652.93 272.93 C 640.16 277.42 618.81 281.18 605.77 287.77 C 592.73 294.36 576.56 299.09 564.31 307.31 C 552.05 315.52 538.64 321.20 528.75 332.75 C 518.87 344.30 506.87 358.54 510.00 374.00
C 515.76 365.27 523.68 358.91 531.75 351.75 C 539.82 344.59 549.74 339.72 559.08 334.08 C 568.41 328.43 578.89 323.43 589.07 319.07 C 599.26 314.71 610.21 308.86 621.02 306.02 C 631.84 303.19 642.33 295.45 653.68 294.68 C 665.03 293.91 678.92 281.59 689.75 292.25 C 700.58 302.91 686.01 315.36 673.99 314.99 C 661.97 314.62 650.15 322.86 638.78 324.78 C 627.40 326.69 617.28 332.96 606.78 336.78 C 596.27 340.60 585.79 346.07 575.92 350.92 C 566.05 355.77 556.85 361.80 548.25 368.25 C 539.64 374.69 531.06 380.40 524.25 389.25 C 517.43 398.09 509.54 408.24 510.00 420.00
C 518.05 412.82 524.74 405.81 533.23 399.23 C 541.72 392.65 550.79 386.65 560.23 381.23 C 569.67 375.81 579.54 370.22 589.70 365.69 C 599.85 361.17 610.49 355.41 621.22 352.22 C 631.96 349.04 643.75 341.92 655.02 341.02 C 666.30 340.13 679.83 327.16 690.25 338.75 C 700.67 350.34 684.86 361.12 672.99 360.99 C 661.12 360.86 649.36 369.03 637.98 370.98 C 626.59 372.92 616.40 380.19 605.78 383.78 C 595.16 387.37 585.41 393.55 575.77 398.77 C 566.13 403.99 555.76 408.51 547.30 415.30 C 538.85 422.10 530.56 428.44 523.75 436.75 C 516.95 445.06 508.15 455.08 510.00 466.00
C 519.12 458.15 525.98 449.74 535.75 442.75 C 545.53 435.76 555.49 430.35 566.23 424.23 C 576.97 418.11 587.06 413.29 598.70 407.69 C 610.33 402.10 621.82 400.08 634.22 394.22 C 646.63 388.37 658.78 390.09 672.07 383.07 C 685.37 376.06 702.03 394.33 688.77 402.77 C 675.51 411.20 662.63 407.28 649.99 412.99 C 637.36 418.70 625.65 420.52 613.93 425.93 C 602.20 431.33 590.95 435.04 580.31 441.31 C 569.66 447.57 559.33 452.75 549.77 459.77 C 540.21 466.79 531.43 473.55 523.75 482.75 C 516.08 491.96 508.86 504.10 510.00 516.00
C 518.34 509.53 523.75 500.88 532.25 494.25 C 540.74 487.62 549.29 481.96 558.70 476.70 C 568.10 471.43 576.57 465.04 586.70 460.70 C 596.82 456.35 606.49 451.23 617.08 447.08 C 627.66 442.92 638.12 437.65 650.01 436.01 C 661.90 434.37 671.94 424.93 685.22 428.78 C 698.50 432.63 691.86 451.94 678.98 451.98 C 666.09 452.01 656.00 459.15 644.32 461.32 C 632.65 463.49 623.40 470.03 612.77 473.77 C 602.14 477.51 592.42 482.50 582.92 487.92 C 573.43 493.35 564.59 498.70 555.77 504.77 C 546.95 510.84 539.23 516.74 531.75 524.75 C 524.27 532.77 516.51 542.06 515.00 553.00
C 526.34 547.17 536.27 539.24 547.70 532.70 C 559.12 526.15 570.25 519.25 582.23 513.23 C 594.21 507.21 607.84 503.12 619.69 496.69 C 631.55 490.27 648.09 488.01 660.01 483.01 C 671.92 478.01 695.48 472.10 693.00 490.00 C 690.52 507.90 668.54 501.29 656.93 507.93 C 645.31 514.57 628.90 515.40 617.31 522.31 C 605.71 529.21 592.31 533.27 580.92 539.92 C 569.54 546.58 557.72 553.34 546.75 559.75 C 535.79 566.17 527.87 580.08 515.32 582.32 C 502.78 584.57 483.20 592.79 471.92 586.08 C 460.65 579.36 455.11 566.46 443.25 560.75 C 431.40 555.03 421.93 545.76 409.77 540.23 C 397.61 534.70 385.07 528.94 372.92 523.08 C 360.78 517.21 346.02 513.45 333.78 508.22 C 321.53 503.00 300.92 506.74 299.01 488.99 C 297.10 471.24 321.90 477.78 334.00 482.00 C 346.11 486.22 360.82 492.22 373.22 496.78 C 385.62 501.33 398.38 507.97 410.25 513.75 C 422.11 519.54 433.70 526.11 444.70 533.30 C 455.69 540.50 465.31 549.04 477.00 555.00
C 473.74 542.41 465.19 532.51 455.75 523.25 C 446.31 513.99 437.24 506.66 425.92 500.08 C 414.60 493.50 404.49 486.27 391.92 481.08 C 379.36 475.88 368.99 468.78 354.98 465.03 C 340.96 461.27 330.28 453.31 313.78 453.22 C 297.28 453.13 294.92 426.72 312.00 428.00 C 329.08 429.28 338.84 435.79 353.23 439.77 C 367.62 443.75 378.74 448.76 391.23 454.77 C 403.72 460.78 414.58 466.56 426.23 472.77 C 437.88 478.98 447.45 486.29 457.25 494.75 C 467.05 503.21 476.57 510.82 484.00 521.00
C 485.14 509.67 476.25 498.04 469.75 488.25 C 463.24 478.47 454.74 470.24 445.25 462.75 C 435.77 455.25 425.47 449.83 414.75 443.25 C 404.04 436.67 392.63 433.10 380.92 427.08 C 369.21 421.05 356.75 419.66 343.98 414.02 C 331.20 408.39 317.64 411.64 304.32 403.68 C 291.00 395.72 306.72 375.77 320.07 382.93 C 333.42 390.08 346.43 388.24 359.02 393.98 C 371.62 399.71 383.41 402.01 395.03 407.98 C 406.64 413.94 417.31 418.64 428.08 424.92 C 438.84 431.21 448.60 437.31 458.25 444.75 C 467.89 452.20 474.72 461.25 484.00 469.00
C 482.64 457.96 475.86 447.42 469.08 438.92 C 462.31 430.42 455.21 422.84 446.25 416.75 C 437.29 410.67 428.44 404.37 418.75 399.25 C 409.07 394.13 398.68 388.58 388.31 384.69 C 377.93 380.81 366.76 374.80 355.92 372.08 C 345.09 369.35 331.93 362.30 320.78 362.22 C 309.63 362.15 292.26 352.06 301.26 340.26 C 310.25 328.45 325.78 340.44 336.68 341.32 C 347.57 342.21 359.60 349.73 370.23 352.77 C 380.86 355.81 392.57 360.82 402.69 365.31 C 412.82 369.79 422.55 375.68 432.08 380.92 C 441.61 386.16 450.76 391.78 458.75 399.25 C 466.74 406.72 476.10 412.81 482.00 422.00
C 484.02 411.39 474.61 401.14 468.70 392.30 C 462.79 383.46 455.01 376.02 446.25 369.75 C 437.49 363.48 427.90 357.98 418.30 352.70 C 408.71 347.41 398.88 341.38 388.31 337.69 C 377.73 334.00 366.99 327.89 355.93 325.07 C 344.87 322.26 331.67 315.99 319.98 316.02 C 308.28 316.06 291.73 305.18 301.25 293.25 C 310.78 281.33 325.09 293.66 336.07 294.93 C 347.06 296.19 359.33 302.75 370.02 305.98 C 380.72 309.20 392.30 314.35 402.68 318.32 C 413.06 322.30 422.57 328.76 432.23 333.77 C 441.89 338.78 450.80 344.99 459.23 351.77 C 467.66 358.55 475.82 366.30 482.00 375.00
C 483.12 362.02 474.11 348.76 466.23 337.77 C 458.35 326.78 447.50 318.98 435.92 312.08 C 424.35 305.18 413.30 298.17 399.92 293.08 C 386.55 287.98 373.97 281.36 358.93 278.07 C 343.88 274.79 331.13 267.49 313.93 267.07 C 296.72 266.66 296.83 240.36 314.01 242.01 C 331.19 243.65 342.83 250.76 358.22 253.78 C 373.61 256.79 386.00 263.92 400.07 267.93 C 414.15 271.94 424.91 279.42 437.23 285.77 C 449.55 292.12 460.32 299.03 470.25 308.75 C 480.18 318.48 489.33 327.92 495.00 340.00
M 522.00 594.00 
C 523.58 580.88 540.76 585.43 550.07 580.07 C 559.39 574.72 570.60 572.38 580.03 567.02 C 589.45 561.67 600.41 559.89 610.03 555.03 C 619.64 550.16 628.10 544.32 638.23 540.23 C 648.36 536.13 659.19 534.41 669.07 529.07 C 678.96 523.74 696.35 523.69 695.00 538.00 C 693.65 552.32 679.28 549.53 669.98 554.98 C 660.67 560.42 649.36 562.52 639.92 567.92 C 630.48 573.33 620.86 576.48 610.92 580.92 C 600.99 585.37 591.24 589.94 580.92 593.92 C 570.61 597.91 558.54 600.45 548.00 604.00
C 551.49 608.56 552.07 625.41 560.01 624.99 C 567.95 624.57 576.58 618.22 584.68 616.68 C 592.78 615.13 599.68 608.09 607.70 605.70 C 615.71 603.30 622.37 598.61 630.23 595.23 C 638.09 591.85 645.88 589.38 654.07 586.07 C 662.27 582.77 669.01 578.33 678.07 576.07 C 687.14 573.81 692.24 569.70 702.23 567.23 C 712.22 564.76 715.47 557.28 714.00 546.00 C 712.53 534.72 714.70 523.21 714.00 512.00 C 713.30 500.79 714.34 490.17 714.00 479.00 C 713.66 467.83 714.23 456.12 714.00 445.00 C 713.77 433.88 714.28 423.03 714.00 412.00 C 713.72 400.97 714.50 389.96 714.00 379.00 C 713.50 368.04 713.52 361.22 713.99 350.99 C 714.47 340.76 714.73 328.62 714.00 318.00 C 713.27 307.39 718.51 298.70 729.22 303.78 C 739.94 308.86 740.07 316.29 740.00 327.00 C 739.93 337.71 740.22 349.20 740.00 360.00 C 739.78 370.80 739.36 378.21 740.00 389.00 C 740.64 399.79 739.61 412.07 740.00 423.00 C 740.39 433.93 739.62 445.09 740.00 456.00 C 740.38 466.90 739.39 479.29 740.00 490.00 C 740.61 500.71 738.71 512.82 740.00 523.00 C 741.29 533.18 740.11 540.71 740.00 550.00 C 739.90 559.30 741.93 569.96 734.75 576.75 C 727.56 583.54 723.49 586.50 714.77 589.77 C 706.06 593.04 700.05 595.93 690.92 598.92 C 681.80 601.92 675.10 604.48 664.99 606.99 C 654.88 609.51 654.04 618.42 656.00 629.00 C 657.96 639.58 656.50 648.65 658.00 660.00 C 659.50 671.35 655.37 681.06 658.93 693.07 C 662.49 705.09 652.03 708.62 644.75 700.25 C 637.47 691.87 634.17 690.39 626.00 685.00
C 616.47 688.72 617.33 702.42 606.25 705.25 C 595.16 708.08 597.68 685.36 598.00 675.00 C 598.32 664.64 599.16 647.03 598.00 636.00
C 588.81 636.48 580.11 641.46 571.92 644.92 C 563.74 648.39 557.19 652.27 550.75 658.75 C 544.32 665.23 538.92 670.60 530.77 674.77 C 522.62 678.94 513.52 681.77 503.98 682.98 C 494.43 684.19 481.14 682.18 472.33 679.67 C 463.52 677.16 457.00 671.43 450.25 665.75 C 443.49 660.07 441.36 651.08 432.92 648.08 C 424.49 645.08 414.07 644.17 405.77 640.23 C 397.47 636.29 388.41 633.46 379.98 630.03 C 371.54 626.59 364.04 623.12 355.77 619.23 C 347.50 615.34 338.62 613.15 329.98 610.02 C 321.33 606.90 312.76 602.93 303.93 600.07 C 295.09 597.22 286.68 594.56 277.93 591.07 C 269.17 587.59 263.15 585.10 256.75 577.25 C 250.34 569.41 250.54 557.78 251.00 547.00 C 251.46 536.22 250.74 523.14 251.00 512.00 C 251.26 500.86 250.77 488.16 251.00 477.00 C 251.23 465.84 251.08 453.27 251.02 442.98 C 250.96 432.69 252.84 421.99 252.00 411.00 C 251.16 400.01 252.62 388.10 252.00 378.00 C 251.38 367.90 250.53 355.13 251.00 345.00 C 251.47 334.87 249.41 320.03 253.26 312.26 C 257.11 304.49 267.37 296.66 274.25 303.75 C 281.12 310.85 277.18 325.67 278.00 336.00 C 278.82 346.33 277.50 359.98 278.00 371.00 C 278.50 382.02 277.49 394.71 278.00 406.00 C 278.51 417.29 277.22 429.50 277.80 440.25 C 278.38 450.99 276.74 458.46 277.20 468.25 C 277.66 478.04 278.37 492.44 278.00 503.00 C 277.63 513.56 278.27 527.68 278.00 538.00 C 277.73 548.32 275.74 561.34 285.23 565.77 C 294.72 570.20 301.97 572.61 311.07 575.93 C 320.18 579.24 327.44 582.50 336.08 585.92 C 344.71 589.35 352.50 592.84 361.02 595.98 C 369.55 599.11 377.22 604.40 385.70 607.31 C 394.17 610.21 401.13 615.84 409.69 618.31 C 418.26 620.78 425.92 628.57 434.75 623.75 C 443.57 618.92 443.63 608.11 433.31 605.70 C 422.98 603.28 417.68 598.17 408.32 595.68 C 398.96 593.19 392.95 588.03 384.31 584.69 C 375.66 581.36 368.29 576.88 359.92 573.08 C 351.56 569.27 344.31 566.07 335.92 562.08 C 327.54 558.08 320.32 555.10 311.32 551.68 C 302.32 548.26 295.06 541.94 297.93 530.93 C 300.80 519.91 313.63 525.13 322.07 527.93 C 330.52 530.73 339.04 533.91 347.08 537.92 C 355.11 541.94 362.87 546.32 371.08 549.92 C 379.29 553.52 386.98 557.05 395.23 560.77 C 403.48 564.49 411.14 567.04 419.23 571.77 C 427.32 576.50 435.17 578.72 443.69 583.31 C 452.22 587.89 460.47 590.36 471.00 591.00 C 481.53 591.64 468.65 600.48 464.23 607.23 C 459.81 613.98 456.66 628.08 460.78 636.22 C 464.89 644.37 468.25 651.11 476.75 655.25 C 485.24 659.40 497.76 660.18 507.00 658.00 C 516.25 655.83 524.15 653.37 530.75 645.75 C 537.36 638.14 534.93 626.30 535.00 617.00 C 535.07 607.70 533.13 595.87 522.00 594.00
M 780.00 429.00 
C 796.45 433.46 789.88 461.58 771.98 456.02 C 754.07 450.47 761.69 424.04 780.00 429.00
M 211.00 486.00 
C 226.89 487.10 230.72 513.23 211.98 514.98 C 193.23 516.73 192.72 484.73 211.00 486.00
M 376.00 662.00 
C 394.26 666.52 386.82 695.27 368.00 690.00 C 349.18 684.73 356.55 657.18 376.00 662.00
M 498.00 722.00 
C 517.13 724.96 515.16 755.80 495.00 755.00 C 474.83 754.19 477.47 718.83 498.00 722.00 Z"/>
</g>
<g fill="None" fill-opacity="0.0" stroke="#eaeaea" stroke-opacity="1.00" stroke-width="0.3"><path d="
M 495.00 340.00 
C 489.33 327.92 480.18 318.48 470.25 308.75 C 460.32 299.03 449.55 292.12 437.23 285.77 C 424.91 279.42 414.15 271.94 400.07 267.93 C 386.00 263.92 373.61 256.79 358.22 253.78 C 342.83 250.76 331.19 243.65 314.01 242.01 C 296.83 240.36 296.72 266.66 313.93 267.07 C 331.13 267.49 343.88 274.79 358.93 278.07 C 373.97 281.36 386.55 287.98 399.92 293.08 C 413.30 298.17 424.35 305.18 435.92 312.08 C 447.50 318.98 458.35 326.78 466.23 337.77 C 474.11 348.76 483.12 362.02 482.00 375.00
C 475.82 366.30 467.66 358.55 459.23 351.77 C 450.80 344.99 441.89 338.78 432.23 333.77 C 422.57 328.76 413.06 322.30 402.68 318.32 C 392.30 314.35 380.72 309.20 370.02 305.98 C 359.33 302.75 347.06 296.19 336.07 294.93 C 325.09 293.66 310.78 281.33 301.25 293.25 C 291.73 305.18 308.28 316.06 319.98 316.02 C 331.67 315.99 344.87 322.26 355.93 325.07 C 366.99 327.89 377.73 334.00 388.31 337.69 C 398.88 341.38 408.71 347.41 418.30 352.70 C 427.90 357.98 437.49 363.48 446.25 369.75 C 455.01 376.02 462.79 383.46 468.70 392.30 C 474.61 401.14 484.02 411.39 482.00 422.00
C 476.10 412.81 466.74 406.72 458.75 399.25 C 450.76 391.78 441.61 386.16 432.08 380.92 C 422.55 375.68 412.82 369.79 402.69 365.31 C 392.57 360.82 380.86 355.81 370.23 352.77 C 359.60 349.73 347.57 342.21 336.68 341.32 C 325.78 340.44 310.25 328.45 301.26 340.26 C 292.26 352.06 309.63 362.15 320.78 362.22 C 331.93 362.30 345.09 369.35 355.92 372.08 C 366.76 374.80 377.93 380.81 388.31 384.69 C 398.68 388.58 409.07 394.13 418.75 399.25 C 428.44 404.37 437.29 410.67 446.25 416.75 C 455.21 422.84 462.31 430.42 469.08 438.92 C 475.86 447.42 482.64 457.96 484.00 469.00
C 474.72 461.25 467.89 452.20 458.25 444.75 C 448.60 437.31 438.84 431.21 428.08 424.92 C 417.31 418.64 406.64 413.94 395.03 407.98 C 383.41 402.01 371.62 399.71 359.02 393.98 C 346.43 388.24 333.42 390.08 320.07 382.93 C 306.72 375.77 291.00 395.72 304.32 403.68 C 317.64 411.64 331.20 408.39 343.98 414.02 C 356.75 419.66 369.21 421.05 380.92 427.08 C 392.63 433.10 404.04 436.67 414.75 443.25 C 425.47 449.83 435.77 455.25 445.25 462.75 C 454.74 470.24 463.24 478.47 469.75 488.25 C 476.25 498.04 485.14 509.67 484.00 521.00
C 476.57 510.82 467.05 503.21 457.25 494.75 C 447.45 486.29 437.88 478.98 426.23 472.77 C 414.58 466.56 403.72 460.78 391.23 454.77 C 378.74 448.76 367.62 443.75 353.23 439.77 C 338.84 435.79 329.08 429.28 312.00 428.00 C 294.92 426.72 297.28 453.13 313.78 453.22 C 330.28 453.31 340.96 461.27 354.98 465.03 C 368.99 468.78 379.36 475.88 391.92 481.08 C 404.49 486.27 414.60 493.50 425.92 500.08 C 437.24 506.66 446.31 513.99 455.75 523.25 C 465.19 532.51 473.74 542.41 477.00 555.00
C 465.31 549.04 455.69 540.50 444.70 533.30 C 433.70 526.11 422.11 519.54 410.25 513.75 C 398.38 507.97 385.62 501.33 373.22 496.78 C 360.82 492.22 346.11 486.22 334.00 482.00 C 321.90 477.78 297.10 471.24 299.01 488.99 C 300.92 506.74 321.53 503.00 333.78 508.22 C 346.02 513.45 360.78 517.21 372.92 523.08 C 385.07 528.94 397.61 534.70 409.77 540.23 C 421.93 545.76 431.40 555.03 443.25 560.75 C 455.11 566.46 460.65 579.36 471.92 586.08 C 483.20 592.79 502.78 584.57 515.32 582.32 C 527.87 580.08 535.79 566.17 546.75 559.75 C 557.72 553.34 569.54 546.58 580.92 539.92 C 592.31 533.27 605.71 529.21 617.31 522.31 C 628.90 515.40 645.31 514.57 656.93 507.93 C 668.54 501.29 690.52 507.90 693.00 490.00 C 695.48 472.10 671.92 478.01 660.01 483.01 C 648.09 488.01 631.55 490.27 619.69 496.69 C 607.84 503.12 594.21 507.21 582.23 513.23 C 570.25 519.25 559.12 526.15 547.70 532.70 C 536.27 539.24 526.34 547.17 515.00 553.00
C 516.51 542.06 524.27 532.77 531.75 524.75 C 539.23 516.74 546.95 510.84 555.77 504.77 C 564.59 498.70 573.43 493.35 582.92 487.92 C 592.42 482.50 602.14 477.51 612.77 473.77 C 623.40 470.03 632.65 463.49 644.32 461.32 C 656.00 459.15 666.09 452.01 678.98 451.98 C 691.86 451.94 698.50 432.63 685.22 428.78 C 671.94 424.93 661.90 434.37 650.01 436.01 C 638.12 437.65 627.66 442.92 617.08 447.08 C 606.49 451.23 596.82 456.35 586.70 460.70 C 576.57 465.04 568.10 471.43 558.70 476.70 C 549.29 481.96 540.74 487.62 532.25 494.25 C 523.75 500.88 518.34 509.53 510.00 516.00
C 508.86 504.10 516.08 491.96 523.75 482.75 C 531.43 473.55 540.21 466.79 549.77 459.77 C 559.33 452.75 569.66 447.57 580.31 441.31 C 590.95 435.04 602.20 431.33 613.93 425.93 C 625.65 420.52 637.36 418.70 649.99 412.99 C 662.63 407.28 675.51 411.20 688.77 402.77 C 702.03 394.33 685.37 376.06 672.07 383.07 C 658.78 390.09 646.63 388.37 634.22 394.22 C 621.82 400.08 610.33 402.10 598.70 407.69 C 587.06 413.29 576.97 418.11 566.23 424.23 C 555.49 430.35 545.53 435.76 535.75 442.75 C 525.98 449.74 519.12 458.15 510.00 466.00
C 508.15 455.08 516.95 445.06 523.75 436.75 C 530.56 428.44 538.85 422.10 547.30 415.30 C 555.76 408.51 566.13 403.99 575.77 398.77 C 585.41 393.55 595.16 387.37 605.78 383.78 C 616.40 380.19 626.59 372.92 637.98 370.98 C 649.36 369.03 661.12 360.86 672.99 360.99 C 684.86 361.12 700.67 350.34 690.25 338.75 C 679.83 327.16 666.30 340.13 655.02 341.02 C 643.75 341.92 631.96 349.04 621.22 352.22 C 610.49 355.41 599.85 361.17 589.70 365.69 C 579.54 370.22 569.67 375.81 560.23 381.23 C 550.79 386.65 541.72 392.65 533.23 399.23 C 524.74 405.81 518.05 412.82 510.00 420.00
C 509.54 408.24 517.43 398.09 524.25 389.25 C 531.06 380.40 539.64 374.69 548.25 368.25 C 556.85 361.80 566.05 355.77 575.92 350.92 C 585.79 346.07 596.27 340.60 606.78 336.78 C 617.28 332.96 627.40 326.69 638.78 324.78 C 650.15 322.86 661.97 314.62 673.99 314.99 C 686.01 315.36 700.58 302.91 689.75 292.25 C 678.92 281.59 665.03 293.91 653.68 294.68 C 642.33 295.45 631.84 303.19 621.02 306.02 C 610.21 308.86 599.26 314.71 589.07 319.07 C 578.89 323.43 568.41 328.43 559.08 334.08 C 549.74 339.72 539.82 344.59 531.75 351.75 C 523.68 358.91 515.76 365.27 510.00 374.00
C 506.87 358.54 518.87 344.30 528.75 332.75 C 538.64 321.20 552.05 315.52 564.31 307.31 C 576.56 299.09 592.73 294.36 605.77 287.77 C 618.81 281.18 640.16 277.42 652.93 272.93 C 665.69 268.43 695.05 271.32 691.99 253.01 C 688.93 234.69 661.33 244.87 648.22 248.22 C 635.12 251.58 615.64 258.98 602.02 264.02 C 588.41 269.07 573.10 275.94 560.08 283.08 C 547.06 290.23 534.70 297.60 523.25 307.25 C 511.79 316.89 503.50 329.72 495.00 340.00 Z"/>
</g>
<g fill="None" fill-opacity="0.0" stroke="#eaeaea" stroke-opacity="1.00" stroke-width="0.3"><path d="
M 522.00 594.00 
C 533.13 595.87 535.07 607.70 535.00 617.00 C 534.93 626.30 537.36 638.14 530.75 645.75 C 524.15 653.37 516.25 655.83 507.00 658.00 C 497.76 660.18 485.24 659.40 476.75 655.25 C 468.25 651.11 464.89 644.37 460.78 636.22 C 456.66 628.08 459.81 613.98 464.23 607.23 C 468.65 600.48 481.53 591.64 471.00 591.00 C 460.47 590.36 452.22 587.89 443.69 583.31 C 435.17 578.72 427.32 576.50 419.23 571.77 C 411.14 567.04 403.48 564.49 395.23 560.77 C 386.98 557.05 379.29 553.52 371.08 549.92 C 362.87 546.32 355.11 541.94 347.08 537.92 C 339.04 533.91 330.52 530.73 322.07 527.93 C 313.63 525.13 300.80 519.91 297.93 530.93 C 295.06 541.94 302.32 548.26 311.32 551.68 C 320.32 555.10 327.54 558.08 335.92 562.08 C 344.31 566.07 351.56 569.27 359.92 573.08 C 368.29 576.88 375.66 581.36 384.31 584.69 C 392.95 588.03 398.96 593.19 408.32 595.68 C 417.68 598.17 422.98 603.28 433.31 605.70 C 443.63 608.11 443.57 618.92 434.75 623.75 C 425.92 628.57 418.26 620.78 409.69 618.31 C 401.13 615.84 394.17 610.21 385.70 607.31 C 377.22 604.40 369.55 599.11 361.02 595.98 C 352.50 592.84 344.71 589.35 336.08 585.92 C 327.44 582.50 320.18 579.24 311.07 575.93 C 301.97 572.61 294.72 570.20 285.23 565.77 C 275.74 561.34 277.73 548.32 278.00 538.00 C 278.27 527.68 277.63 513.56 278.00 503.00 C 278.37 492.44 277.66 478.04 277.20 468.25 C 276.74 458.46 278.38 450.99 277.80 440.25 C 277.22 429.50 278.51 417.29 278.00 406.00 C 277.49 394.71 278.50 382.02 278.00 371.00 C 277.50 359.98 278.82 346.33 278.00 336.00 C 277.18 325.67 281.12 310.85 274.25 303.75 C 267.37 296.66 257.11 304.49 253.26 312.26 C 249.41 320.03 251.47 334.87 251.00 345.00 C 250.53 355.13 251.38 367.90 252.00 378.00 C 252.62 388.10 251.16 400.01 252.00 411.00 C 252.84 421.99 250.96 432.69 251.02 442.98 C 251.08 453.27 251.23 465.84 251.00 477.00 C 250.77 488.16 251.26 500.86 251.00 512.00 C 250.74 523.14 251.46 536.22 251.00 547.00 C 250.54 557.78 250.34 569.41 256.75 577.25 C 263.15 585.10 269.17 587.59 277.93 591.07 C 286.68 594.56 295.09 597.22 303.93 600.07 C 312.76 602.93 321.33 606.90 329.98 610.02 C 338.62 613.15 347.50 615.34 355.77 619.23 C 364.04 623.12 371.54 626.59 379.98 630.03 C 388.41 633.46 397.47 636.29 405.77 640.23 C 414.07 644.17 424.49 645.08 432.92 648.08 C 441.36 651.08 443.49 660.07 450.25 665.75 C 457.00 671.43 463.52 677.16 472.33 679.67 C 481.14 682.18 494.43 684.19 503.98 682.98 C 513.52 681.77 522.62 678.94 530.77 674.77 C 538.92 670.60 544.32 665.23 550.75 658.75 C 557.19 652.27 563.74 648.39 571.92 644.92 C 580.11 641.46 588.81 636.48 598.00 636.00
C 599.16 647.03 598.32 664.64 598.00 675.00 C 597.68 685.36 595.16 708.08 606.25 705.25 C 617.33 702.42 616.47 688.72 626.00 685.00
C 634.17 690.39 637.47 691.87 644.75 700.25 C 652.03 708.62 662.49 705.09 658.93 693.07 C 655.37 681.06 659.50 671.35 658.00 660.00 C 656.50 648.65 657.96 639.58 656.00 629.00 C 654.04 618.42 654.88 609.51 664.99 606.99 C 675.10 604.48 681.80 601.92 690.92 598.92 C 700.05 595.93 706.06 593.04 714.77 589.77 C 723.49 586.50 727.56 583.54 734.75 576.75 C 741.93 569.96 739.90 559.30 740.00 550.00 C 740.11 540.71 741.29 533.18 740.00 523.00 C 738.71 512.82 740.61 500.71 740.00 490.00 C 739.39 479.29 740.38 466.90 740.00 456.00 C 739.62 445.09 740.39 433.93 740.00 423.00 C 739.61 412.07 740.64 399.79 740.00 389.00 C 739.36 378.21 739.78 370.80 740.00 360.00 C 740.22 349.20 739.93 337.71 740.00 327.00 C 740.07 316.29 739.94 308.86 729.22 303.78 C 718.51 298.70 713.27 307.39 714.00 318.00 C 714.73 328.62 714.47 340.76 713.99 350.99 C 713.52 361.22 713.50 368.04 714.00 379.00 C 714.50 389.96 713.72 400.97 714.00 412.00 C 714.28 423.03 713.77 433.88 714.00 445.00 C 714.23 456.12 713.66 467.83 714.00 479.00 C 714.34 490.17 713.30 500.79 714.00 512.00 C 714.70 523.21 712.53 534.72 714.00 546.00 C 715.47 557.28 712.22 564.76 702.23 567.23 C 692.24 569.70 687.14 573.81 678.07 576.07 C 669.01 578.33 662.27 582.77 654.07 586.07 C 645.88 589.38 638.09 591.85 630.23 595.23 C 622.37 598.61 615.71 603.30 607.70 605.70 C 599.68 608.09 592.78 615.13 584.68 616.68 C 576.58 618.22 567.95 624.57 560.01 624.99 C 552.07 625.41 551.49 608.56 548.00 604.00
C 558.54 600.45 570.61 597.91 580.92 593.92 C 591.24 589.94 600.99 585.37 610.92 580.92 C 620.86 576.48 630.48 573.33 639.92 567.92 C 649.36 562.52 660.67 560.42 669.98 554.98 C 679.28 549.53 693.65 552.32 695.00 538.00 C 696.35 523.69 678.96 523.74 669.07 529.07 C 659.19 534.41 648.36 536.13 638.23 540.23 C 628.10 544.32 619.64 550.16 610.03 555.03 C 600.41 559.89 589.45 561.67 580.03 567.02 C 570.60 572.38 559.39 574.72 550.07 580.07 C 540.76 585.43 523.58 580.88 522.00 594.00 Z"/>
</g>
<g fill="None" fill-opacity="0.0" stroke="#eaeaea" stroke-opacity="1.00" stroke-width="0.3"><path d="
M 780.00 429.00 
C 761.69 424.04 754.07 450.47 771.98 456.02 C 789.88 461.58 796.45 433.46 780.00 429.00 Z"/>
</g>
<g fill="None" fill-opacity="0.0" stroke="#eaeaea" stroke-opacity="1.00" stroke-width="0.3"><path d="
M 211.00 486.00 
C 192.72 484.73 193.23 516.73 211.98 514.98 C 230.72 513.23 226.89 487.10 211.00 486.00 Z"/>
</g>
<g fill="None" fill-opacity="0.0" stroke="#eaeaea" stroke-opacity="1.00" stroke-width="0.3"><path d="
M 376.00 662.00 
C 356.55 657.18 349.18 684.73 368.00 690.00 C 386.82 695.27 394.26 666.52 376.00 662.00 Z"/>
</g>
<g fill="None" fill-opacity="0.0" stroke="#eaeaea" stroke-opacity="1.00" stroke-width="0.3"><path d="
M 498.00 722.00 
C 477.47 718.83 474.83 754.19 495.00 755.00 C 515.16 755.80 517.13 724.96 498.00 722.00 Z"/>
</g>
<g fill="rgba(255,255,255,0)" fill-opacity="1.00" stroke="None">
<path d="
M 0.00 1000.00 
L 1000.00 1000.00
L 1000.00 0.00
L 0.00 0.00
L 0.00 1000.00
M 495.00 340.00 
C 503.50 329.72 511.79 316.89 523.25 307.25 C 534.70 297.60 547.06 290.23 560.08 283.08 C 573.10 275.94 588.41 269.07 602.02 264.02 C 615.64 258.98 635.12 251.58 648.22 248.22 C 661.33 244.87 688.93 234.69 691.99 253.01 C 695.05 271.32 665.69 268.43 652.93 272.93 C 640.16 277.42 618.81 281.18 605.77 287.77 C 592.73 294.36 576.56 299.09 564.31 307.31 C 552.05 315.52 538.64 321.20 528.75 332.75 C 518.87 344.30 506.87 358.54 510.00 374.00
C 515.76 365.27 523.68 358.91 531.75 351.75 C 539.82 344.59 549.74 339.72 559.08 334.08 C 568.41 328.43 578.89 323.43 589.07 319.07 C 599.26 314.71 610.21 308.86 621.02 306.02 C 631.84 303.19 642.33 295.45 653.68 294.68 C 665.03 293.91 678.92 281.59 689.75 292.25 C 700.58 302.91 686.01 315.36 673.99 314.99 C 661.97 314.62 650.15 322.86 638.78 324.78 C 627.40 326.69 617.28 332.96 606.78 336.78 C 596.27 340.60 585.79 346.07 575.92 350.92 C 566.05 355.77 556.85 361.80 548.25 368.25 C 539.64 374.69 531.06 380.40 524.25 389.25 C 517.43 398.09 509.54 408.24 510.00 420.00
C 518.05 412.82 524.74 405.81 533.23 399.23 C 541.72 392.65 550.79 386.65 560.23 381.23 C 569.67 375.81 579.54 370.22 589.70 365.69 C 599.85 361.17 610.49 355.41 621.22 352.22 C 631.96 349.04 643.75 341.92 655.02 341.02 C 666.30 340.13 679.83 327.16 690.25 338.75 C 700.67 350.34 684.86 361.12 672.99 360.99 C 661.12 360.86 649.36 369.03 637.98 370.98 C 626.59 372.92 616.40 380.19 605.78 383.78 C 595.16 387.37 585.41 393.55 575.77 398.77 C 566.13 403.99 555.76 408.51 547.30 415.30 C 538.85 422.10 530.56 428.44 523.75 436.75 C 516.95 445.06 508.15 455.08 510.00 466.00
C 519.12 458.15 525.98 449.74 535.75 442.75 C 545.53 435.76 555.49 430.35 566.23 424.23 C 576.97 418.11 587.06 413.29 598.70 407.69 C 610.33 402.10 621.82 400.08 634.22 394.22 C 646.63 388.37 658.78 390.09 672.07 383.07 C 685.37 376.06 702.03 394.33 688.77 402.77 C 675.51 411.20 662.63 407.28 649.99 412.99 C 637.36 418.70 625.65 420.52 613.93 425.93 C 602.20 431.33 590.95 435.04 580.31 441.31 C 569.66 447.57 559.33 452.75 549.77 459.77 C 540.21 466.79 531.43 473.55 523.75 482.75 C 516.08 491.96 508.86 504.10 510.00 516.00
C 518.34 509.53 523.75 500.88 532.25 494.25 C 540.74 487.62 549.29 481.96 558.70 476.70 C 568.10 471.43 576.57 465.04 586.70 460.70 C 596.82 456.35 606.49 451.23 617.08 447.08 C 627.66 442.92 638.12 437.65 650.01 436.01 C 661.90 434.37 671.94 424.93 685.22 428.78 C 698.50 432.63 691.86 451.94 678.98 451.98 C 666.09 452.01 656.00 459.15 644.32 461.32 C 632.65 463.49 623.40 470.03 612.77 473.77 C 602.14 477.51 592.42 482.50 582.92 487.92 C 573.43 493.35 564.59 498.70 555.77 504.77 C 546.95 510.84 539.23 516.74 531.75 524.75 C 524.27 532.77 516.51 542.06 515.00 553.00
C 526.34 547.17 536.27 539.24 547.70 532.70 C 559.12 526.15 570.25 519.25 582.23 513.23 C 594.21 507.21 607.84 503.12 619.69 496.69 C 631.55 490.27 648.09 488.01 660.01 483.01 C 671.92 478.01 695.48 472.10 693.00 490.00 C 690.52 507.90 668.54 501.29 656.93 507.93 C 645.31 514.57 628.90 515.40 617.31 522.31 C 605.71 529.21 592.31 533.27 580.92 539.92 C 569.54 546.58 557.72 553.34 546.75 559.75 C 535.79 566.17 527.87 580.08 515.32 582.32 C 502.78 584.57 483.20 592.79 471.92 586.08 C 460.65 579.36 455.11 566.46 443.25 560.75 C 431.40 555.03 421.93 545.76 409.77 540.23 C 397.61 534.70 385.07 528.94 372.92 523.08 C 360.78 517.21 346.02 513.45 333.78 508.22 C 321.53 503.00 300.92 506.74 299.01 488.99 C 297.10 471.24 321.90 477.78 334.00 482.00 C 346.11 486.22 360.82 492.22 373.22 496.78 C 385.62 501.33 398.38 507.97 410.25 513.75 C 422.11 519.54 433.70 526.11 444.70 533.30 C 455.69 540.50 465.31 549.04 477.00 555.00
C 473.74 542.41 465.19 532.51 455.75 523.25 C 446.31 513.99 437.24 506.66 425.92 500.08 C 414.60 493.50 404.49 486.27 391.92 481.08 C 379.36 475.88 368.99 468.78 354.98 465.03 C 340.96 461.27 330.28 453.31 313.78 453.22 C 297.28 453.13 294.92 426.72 312.00 428.00 C 329.08 429.28 338.84 435.79 353.23 439.77 C 367.62 443.75 378.74 448.76 391.23 454.77 C 403.72 460.78 414.58 466.56 426.23 472.77 C 437.88 478.98 447.45 486.29 457.25 494.75 C 467.05 503.21 476.57 510.82 484.00 521.00
C 485.14 509.67 476.25 498.04 469.75 488.25 C 463.24 478.47 454.74 470.24 445.25 462.75 C 435.77 455.25 425.47 449.83 414.75 443.25 C 404.04 436.67 392.63 433.10 380.92 427.08 C 369.21 421.05 356.75 419.66 343.98 414.02 C 331.20 408.39 317.64 411.64 304.32 403.68 C 291.00 395.72 306.72 375.77 320.07 382.93 C 333.42 390.08 346.43 388.24 359.02 393.98 C 371.62 399.71 383.41 402.01 395.03 407.98 C 406.64 413.94 417.31 418.64 428.08 424.92 C 438.84 431.21 448.60 437.31 458.25 444.75 C 467.89 452.20 474.72 461.25 484.00 469.00
C 482.64 457.96 475.86 447.42 469.08 438.92 C 462.31 430.42 455.21 422.84 446.25 416.75 C 437.29 410.67 428.44 404.37 418.75 399.25 C 409.07 394.13 398.68 388.58 388.31 384.69 C 377.93 380.81 366.76 374.80 355.92 372.08 C 345.09 369.35 331.93 362.30 320.78 362.22 C 309.63 362.15 292.26 352.06 301.26 340.26 C 310.25 328.45 325.78 340.44 336.68 341.32 C 347.57 342.21 359.60 349.73 370.23 352.77 C 380.86 355.81 392.57 360.82 402.69 365.31 C 412.82 369.79 422.55 375.68 432.08 380.92 C 441.61 386.16 450.76 391.78 458.75 399.25 C 466.74 406.72 476.10 412.81 482.00 422.00
C 484.02 411.39 474.61 401.14 468.70 392.30 C 462.79 383.46 455.01 376.02 446.25 369.75 C 437.49 363.48 427.90 357.98 418.30 352.70 C 408.71 347.41 398.88 341.38 388.31 337.69 C 377.73 334.00 366.99 327.89 355.93 325.07 C 344.87 322.26 331.67 315.99 319.98 316.02 C 308.28 316.06 291.73 305.18 301.25 293.25 C 310.78 281.33 325.09 293.66 336.07 294.93 C 347.06 296.19 359.33 302.75 370.02 305.98 C 380.72 309.20 392.30 314.35 402.68 318.32 C 413.06 322.30 422.57 328.76 432.23 333.77 C 441.89 338.78 450.80 344.99 459.23 351.77 C 467.66 358.55 475.82 366.30 482.00 375.00
C 483.12 362.02 474.11 348.76 466.23 337.77 C 458.35 326.78 447.50 318.98 435.92 312.08 C 424.35 305.18 413.30 298.17 399.92 293.08 C 386.55 287.98 373.97 281.36 358.93 278.07 C 343.88 274.79 331.13 267.49 313.93 267.07 C 296.72 266.66 296.83 240.36 314.01 242.01 C 331.19 243.65 342.83 250.76 358.22 253.78 C 373.61 256.79 386.00 263.92 400.07 267.93 C 414.15 271.94 424.91 279.42 437.23 285.77 C 449.55 292.12 460.32 299.03 470.25 308.75 C 480.18 318.48 489.33 327.92 495.00 340.00
M 522.00 594.00 
C 523.58 580.88 540.76 585.43 550.07 580.07 C 559.39 574.72 570.60 572.38 580.03 567.02 C 589.45 561.67 600.41 559.89 610.03 555.03 C 619.64 550.16 628.10 544.32 638.23 540.23 C 648.36 536.13 659.19 534.41 669.07 529.07 C 678.96 523.74 696.35 523.69 695.00 538.00 C 693.65 552.32 679.28 549.53 669.98 554.98 C 660.67 560.42 649.36 562.52 639.92 567.92 C 630.48 573.33 620.86 576.48 610.92 580.92 C 600.99 585.37 591.24 589.94 580.92 593.92 C 570.61 597.91 558.54 600.45 548.00 604.00
C 551.49 608.56 552.07 625.41 560.01 624.99 C 567.95 624.57 576.58 618.22 584.68 616.68 C 592.78 615.13 599.68 608.09 607.70 605.70 C 615.71 603.30 622.37 598.61 630.23 595.23 C 638.09 591.85 645.88 589.38 654.07 586.07 C 662.27 582.77 669.01 578.33 678.07 576.07 C 687.14 573.81 692.24 569.70 702.23 567.23 C 712.22 564.76 715.47 557.28 714.00 546.00 C 712.53 534.72 714.70 523.21 714.00 512.00 C 713.30 500.79 714.34 490.17 714.00 479.00 C 713.66 467.83 714.23 456.12 714.00 445.00 C 713.77 433.88 714.28 423.03 714.00 412.00 C 713.72 400.97 714.50 389.96 714.00 379.00 C 713.50 368.04 713.52 361.22 713.99 350.99 C 714.47 340.76 714.73 328.62 714.00 318.00 C 713.27 307.39 718.51 298.70 729.22 303.78 C 739.94 308.86 740.07 316.29 740.00 327.00 C 739.93 337.71 740.22 349.20 740.00 360.00 C 739.78 370.80 739.36 378.21 740.00 389.00 C 740.64 399.79 739.61 412.07 740.00 423.00 C 740.39 433.93 739.62 445.09 740.00 456.00 C 740.38 466.90 739.39 479.29 740.00 490.00 C 740.61 500.71 738.71 512.82 740.00 523.00 C 741.29 533.18 740.11 540.71 740.00 550.00 C 739.90 559.30 741.93 569.96 734.75 576.75 C 727.56 583.54 723.49 586.50 714.77 589.77 C 706.06 593.04 700.05 595.93 690.92 598.92 C 681.80 601.92 675.10 604.48 664.99 606.99 C 654.88 609.51 654.04 618.42 656.00 629.00 C 657.96 639.58 656.50 648.65 658.00 660.00 C 659.50 671.35 655.37 681.06 658.93 693.07 C 662.49 705.09 652.03 708.62 644.75 700.25 C 637.47 691.87 634.17 690.39 626.00 685.00
C 616.47 688.72 617.33 702.42 606.25 705.25 C 595.16 708.08 597.68 685.36 598.00 675.00 C 598.32 664.64 599.16 647.03 598.00 636.00
C 588.81 636.48 580.11 641.46 571.92 644.92 C 563.74 648.39 557.19 652.27 550.75 658.75 C 544.32 665.23 538.92 670.60 530.77 674.77 C 522.62 678.94 513.52 681.77 503.98 682.98 C 494.43 684.19 481.14 682.18 472.33 679.67 C 463.52 677.16 457.00 671.43 450.25 665.75 C 443.49 660.07 441.36 651.08 432.92 648.08 C 424.49 645.08 414.07 644.17 405.77 640.23 C 397.47 636.29 388.41 633.46 379.98 630.03 C 371.54 626.59 364.04 623.12 355.77 619.23 C 347.50 615.34 338.62 613.15 329.98 610.02 C 321.33 606.90 312.76 602.93 303.93 600.07 C 295.09 597.22 286.68 594.56 277.93 591.07 C 269.17 587.59 263.15 585.10 256.75 577.25 C 250.34 569.41 250.54 557.78 251.00 547.00 C 251.46 536.22 250.74 523.14 251.00 512.00 C 251.26 500.86 250.77 488.16 251.00 477.00 C 251.23 465.84 251.08 453.27 251.02 442.98 C 250.96 432.69 252.84 421.99 252.00 411.00 C 251.16 400.01 252.62 388.10 252.00 378.00 C 251.38 367.90 250.53 355.13 251.00 345.00 C 251.47 334.87 249.41 320.03 253.26 312.26 C 257.11 304.49 267.37 296.66 274.25 303.75 C 281.12 310.85 277.18 325.67 278.00 336.00 C 278.82 346.33 277.50 359.98 278.00 371.00 C 278.50 382.02 277.49 394.71 278.00 406.00 C 278.51 417.29 277.22 429.50 277.80 440.25 C 278.38 450.99 276.74 458.46 277.20 468.25 C 277.66 478.04 278.37 492.44 278.00 503.00 C 277.63 513.56 278.27 527.68 278.00 538.00 C 277.73 548.32 275.74 561.34 285.23 565.77 C 294.72 570.20 301.97 572.61 311.07 575.93 C 320.18 579.24 327.44 582.50 336.08 585.92 C 344.71 589.35 352.50 592.84 361.02 595.98 C 369.55 599.11 377.22 604.40 385.70 607.31 C 394.17 610.21 401.13 615.84 409.69 618.31 C 418.26 620.78 425.92 628.57 434.75 623.75 C 443.57 618.92 443.63 608.11 433.31 605.70 C 422.98 603.28 417.68 598.17 408.32 595.68 C 398.96 593.19 392.95 588.03 384.31 584.69 C 375.66 581.36 368.29 576.88 359.92 573.08 C 351.56 569.27 344.31 566.07 335.92 562.08 C 327.54 558.08 320.32 555.10 311.32 551.68 C 302.32 548.26 295.06 541.94 297.93 530.93 C 300.80 519.91 313.63 525.13 322.07 527.93 C 330.52 530.73 339.04 533.91 347.08 537.92 C 355.11 541.94 362.87 546.32 371.08 549.92 C 379.29 553.52 386.98 557.05 395.23 560.77 C 403.48 564.49 411.14 567.04 419.23 571.77 C 427.32 576.50 435.17 578.72 443.69 583.31 C 452.22 587.89 460.47 590.36 471.00 591.00 C 481.53 591.64 468.65 600.48 464.23 607.23 C 459.81 613.98 456.66 628.08 460.78 636.22 C 464.89 644.37 468.25 651.11 476.75 655.25 C 485.24 659.40 497.76 660.18 507.00 658.00 C 516.25 655.83 524.15 653.37 530.75 645.75 C 537.36 638.14 534.93 626.30 535.00 617.00 C 535.07 607.70 533.13 595.87 522.00 594.00
M 780.00 429.00 
C 796.45 433.46 789.88 461.58 771.98 456.02 C 754.07 450.47 761.69 424.04 780.00 429.00
M 211.00 486.00 
C 226.89 487.10 230.72 513.23 211.98 514.98 C 193.23 516.73 192.72 484.73 211.00 486.00
M 376.00 662.00 
C 394.26 666.52 386.82 695.27 368.00 690.00 C 349.18 684.73 356.55 657.18 376.00 662.00
M 498.00 722.00 
C 517.13 724.96 515.16 755.80 495.00 755.00 C 474.83 754.19 477.47 718.83 498.00 722.00 Z"/>
</g>
<g fill="#e7e7e7" fill-opacity="1.00" stroke="None">
<path d="
M 495.00 340.00 
C 489.33 327.92 480.18 318.48 470.25 308.75 C 460.32 299.03 449.55 292.12 437.23 285.77 C 424.91 279.42 414.15 271.94 400.07 267.93 C 386.00 263.92 373.61 256.79 358.22 253.78 C 342.83 250.76 331.19 243.65 314.01 242.01 C 296.83 240.36 296.72 266.66 313.93 267.07 C 331.13 267.49 343.88 274.79 358.93 278.07 C 373.97 281.36 386.55 287.98 399.92 293.08 C 413.30 298.17 424.35 305.18 435.92 312.08 C 447.50 318.98 458.35 326.78 466.23 337.77 C 474.11 348.76 483.12 362.02 482.00 375.00
C 475.82 366.30 467.66 358.55 459.23 351.77 C 450.80 344.99 441.89 338.78 432.23 333.77 C 422.57 328.76 413.06 322.30 402.68 318.32 C 392.30 314.35 380.72 309.20 370.02 305.98 C 359.33 302.75 347.06 296.19 336.07 294.93 C 325.09 293.66 310.78 281.33 301.25 293.25 C 291.73 305.18 308.28 316.06 319.98 316.02 C 331.67 315.99 344.87 322.26 355.93 325.07 C 366.99 327.89 377.73 334.00 388.31 337.69 C 398.88 341.38 408.71 347.41 418.30 352.70 C 427.90 357.98 437.49 363.48 446.25 369.75 C 455.01 376.02 462.79 383.46 468.70 392.30 C 474.61 401.14 484.02 411.39 482.00 422.00
C 476.10 412.81 466.74 406.72 458.75 399.25 C 450.76 391.78 441.61 386.16 432.08 380.92 C 422.55 375.68 412.82 369.79 402.69 365.31 C 392.57 360.82 380.86 355.81 370.23 352.77 C 359.60 349.73 347.57 342.21 336.68 341.32 C 325.78 340.44 310.25 328.45 301.26 340.26 C 292.26 352.06 309.63 362.15 320.78 362.22 C 331.93 362.30 345.09 369.35 355.92 372.08 C 366.76 374.80 377.93 380.81 388.31 384.69 C 398.68 388.58 409.07 394.13 418.75 399.25 C 428.44 404.37 437.29 410.67 446.25 416.75 C 455.21 422.84 462.31 430.42 469.08 438.92 C 475.86 447.42 482.64 457.96 484.00 469.00
C 474.72 461.25 467.89 452.20 458.25 444.75 C 448.60 437.31 438.84 431.21 428.08 424.92 C 417.31 418.64 406.64 413.94 395.03 407.98 C 383.41 402.01 371.62 399.71 359.02 393.98 C 346.43 388.24 333.42 390.08 320.07 382.93 C 306.72 375.77 291.00 395.72 304.32 403.68 C 317.64 411.64 331.20 408.39 343.98 414.02 C 356.75 419.66 369.21 421.05 380.92 427.08 C 392.63 433.10 404.04 436.67 414.75 443.25 C 425.47 449.83 435.77 455.25 445.25 462.75 C 454.74 470.24 463.24 478.47 469.75 488.25 C 476.25 498.04 485.14 509.67 484.00 521.00
C 476.57 510.82 467.05 503.21 457.25 494.75 C 447.45 486.29 437.88 478.98 426.23 472.77 C 414.58 466.56 403.72 460.78 391.23 454.77 C 378.74 448.76 367.62 443.75 353.23 439.77 C 338.84 435.79 329.08 429.28 312.00 428.00 C 294.92 426.72 297.28 453.13 313.78 453.22 C 330.28 453.31 340.96 461.27 354.98 465.03 C 368.99 468.78 379.36 475.88 391.92 481.08 C 404.49 486.27 414.60 493.50 425.92 500.08 C 437.24 506.66 446.31 513.99 455.75 523.25 C 465.19 532.51 473.74 542.41 477.00 555.00
C 465.31 549.04 455.69 540.50 444.70 533.30 C 433.70 526.11 422.11 519.54 410.25 513.75 C 398.38 507.97 385.62 501.33 373.22 496.78 C 360.82 492.22 346.11 486.22 334.00 482.00 C 321.90 477.78 297.10 471.24 299.01 488.99 C 300.92 506.74 321.53 503.00 333.78 508.22 C 346.02 513.45 360.78 517.21 372.92 523.08 C 385.07 528.94 397.61 534.70 409.77 540.23 C 421.93 545.76 431.40 555.03 443.25 560.75 C 455.11 566.46 460.65 579.36 471.92 586.08 C 483.20 592.79 502.78 584.57 515.32 582.32 C 527.87 580.08 535.79 566.17 546.75 559.75 C 557.72 553.34 569.54 546.58 580.92 539.92 C 592.31 533.27 605.71 529.21 617.31 522.31 C 628.90 515.40 645.31 514.57 656.93 507.93 C 668.54 501.29 690.52 507.90 693.00 490.00 C 695.48 472.10 671.92 478.01 660.01 483.01 C 648.09 488.01 631.55 490.27 619.69 496.69 C 607.84 503.12 594.21 507.21 582.23 513.23 C 570.25 519.25 559.12 526.15 547.70 532.70 C 536.27 539.24 526.34 547.17 515.00 553.00
C 516.51 542.06 524.27 532.77 531.75 524.75 C 539.23 516.74 546.95 510.84 555.77 504.77 C 564.59 498.70 573.43 493.35 582.92 487.92 C 592.42 482.50 602.14 477.51 612.77 473.77 C 623.40 470.03 632.65 463.49 644.32 461.32 C 656.00 459.15 666.09 452.01 678.98 451.98 C 691.86 451.94 698.50 432.63 685.22 428.78 C 671.94 424.93 661.90 434.37 650.01 436.01 C 638.12 437.65 627.66 442.92 617.08 447.08 C 606.49 451.23 596.82 456.35 586.70 460.70 C 576.57 465.04 568.10 471.43 558.70 476.70 C 549.29 481.96 540.74 487.62 532.25 494.25 C 523.75 500.88 518.34 509.53 510.00 516.00
C 508.86 504.10 516.08 491.96 523.75 482.75 C 531.43 473.55 540.21 466.79 549.77 459.77 C 559.33 452.75 569.66 447.57 580.31 441.31 C 590.95 435.04 602.20 431.33 613.93 425.93 C 625.65 420.52 637.36 418.70 649.99 412.99 C 662.63 407.28 675.51 411.20 688.77 402.77 C 702.03 394.33 685.37 376.06 672.07 383.07 C 658.78 390.09 646.63 388.37 634.22 394.22 C 621.82 400.08 610.33 402.10 598.70 407.69 C 587.06 413.29 576.97 418.11 566.23 424.23 C 555.49 430.35 545.53 435.76 535.75 442.75 C 525.98 449.74 519.12 458.15 510.00 466.00
C 508.15 455.08 516.95 445.06 523.75 436.75 C 530.56 428.44 538.85 422.10 547.30 415.30 C 555.76 408.51 566.13 403.99 575.77 398.77 C 585.41 393.55 595.16 387.37 605.78 383.78 C 616.40 380.19 626.59 372.92 637.98 370.98 C 649.36 369.03 661.12 360.86 672.99 360.99 C 684.86 361.12 700.67 350.34 690.25 338.75 C 679.83 327.16 666.30 340.13 655.02 341.02 C 643.75 341.92 631.96 349.04 621.22 352.22 C 610.49 355.41 599.85 361.17 589.70 365.69 C 579.54 370.22 569.67 375.81 560.23 381.23 C 550.79 386.65 541.72 392.65 533.23 399.23 C 524.74 405.81 518.05 412.82 510.00 420.00
C 509.54 408.24 517.43 398.09 524.25 389.25 C 531.06 380.40 539.64 374.69 548.25 368.25 C 556.85 361.80 566.05 355.77 575.92 350.92 C 585.79 346.07 596.27 340.60 606.78 336.78 C 617.28 332.96 627.40 326.69 638.78 324.78 C 650.15 322.86 661.97 314.62 673.99 314.99 C 686.01 315.36 700.58 302.91 689.75 292.25 C 678.92 281.59 665.03 293.91 653.68 294.68 C 642.33 295.45 631.84 303.19 621.02 306.02 C 610.21 308.86 599.26 314.71 589.07 319.07 C 578.89 323.43 568.41 328.43 559.08 334.08 C 549.74 339.72 539.82 344.59 531.75 351.75 C 523.68 358.91 515.76 365.27 510.00 374.00
C 506.87 358.54 518.87 344.30 528.75 332.75 C 538.64 321.20 552.05 315.52 564.31 307.31 C 576.56 299.09 592.73 294.36 605.77 287.77 C 618.81 281.18 640.16 277.42 652.93 272.93 C 665.69 268.43 695.05 271.32 691.99 253.01 C 688.93 234.69 661.33 244.87 648.22 248.22 C 635.12 251.58 615.64 258.98 602.02 264.02 C 588.41 269.07 573.10 275.94 560.08 283.08 C 547.06 290.23 534.70 297.60 523.25 307.25 C 511.79 316.89 503.50 329.72 495.00 340.00 Z"/>
</g>
<g fill="#e5e5e5" fill-opacity="1.00" stroke="None">
<path d="
M 522.00 594.00 
C 533.13 595.87 535.07 607.70 535.00 617.00 C 534.93 626.30 537.36 638.14 530.75 645.75 C 524.15 653.37 516.25 655.83 507.00 658.00 C 497.76 660.18 485.24 659.40 476.75 655.25 C 468.25 651.11 464.89 644.37 460.78 636.22 C 456.66 628.08 459.81 613.98 464.23 607.23 C 468.65 600.48 481.53 591.64 471.00 591.00 C 460.47 590.36 452.22 587.89 443.69 583.31 C 435.17 578.72 427.32 576.50 419.23 571.77 C 411.14 567.04 403.48 564.49 395.23 560.77 C 386.98 557.05 379.29 553.52 371.08 549.92 C 362.87 546.32 355.11 541.94 347.08 537.92 C 339.04 533.91 330.52 530.73 322.07 527.93 C 313.63 525.13 300.80 519.91 297.93 530.93 C 295.06 541.94 302.32 548.26 311.32 551.68 C 320.32 555.10 327.54 558.08 335.92 562.08 C 344.31 566.07 351.56 569.27 359.92 573.08 C 368.29 576.88 375.66 581.36 384.31 584.69 C 392.95 588.03 398.96 593.19 408.32 595.68 C 417.68 598.17 422.98 603.28 433.31 605.70 C 443.63 608.11 443.57 618.92 434.75 623.75 C 425.92 628.57 418.26 620.78 409.69 618.31 C 401.13 615.84 394.17 610.21 385.70 607.31 C 377.22 604.40 369.55 599.11 361.02 595.98 C 352.50 592.84 344.71 589.35 336.08 585.92 C 327.44 582.50 320.18 579.24 311.07 575.93 C 301.97 572.61 294.72 570.20 285.23 565.77 C 275.74 561.34 277.73 548.32 278.00 538.00 C 278.27 527.68 277.63 513.56 278.00 503.00 C 278.37 492.44 277.66 478.04 277.20 468.25 C 276.74 458.46 278.38 450.99 277.80 440.25 C 277.22 429.50 278.51 417.29 278.00 406.00 C 277.49 394.71 278.50 382.02 278.00 371.00 C 277.50 359.98 278.82 346.33 278.00 336.00 C 277.18 325.67 281.12 310.85 274.25 303.75 C 267.37 296.66 257.11 304.49 253.26 312.26 C 249.41 320.03 251.47 334.87 251.00 345.00 C 250.53 355.13 251.38 367.90 252.00 378.00 C 252.62 388.10 251.16 400.01 252.00 411.00 C 252.84 421.99 250.96 432.69 251.02 442.98 C 251.08 453.27 251.23 465.84 251.00 477.00 C 250.77 488.16 251.26 500.86 251.00 512.00 C 250.74 523.14 251.46 536.22 251.00 547.00 C 250.54 557.78 250.34 569.41 256.75 577.25 C 263.15 585.10 269.17 587.59 277.93 591.07 C 286.68 594.56 295.09 597.22 303.93 600.07 C 312.76 602.93 321.33 606.90 329.98 610.02 C 338.62 613.15 347.50 615.34 355.77 619.23 C 364.04 623.12 371.54 626.59 379.98 630.03 C 388.41 633.46 397.47 636.29 405.77 640.23 C 414.07 644.17 424.49 645.08 432.92 648.08 C 441.36 651.08 443.49 660.07 450.25 665.75 C 457.00 671.43 463.52 677.16 472.33 679.67 C 481.14 682.18 494.43 684.19 503.98 682.98 C 513.52 681.77 522.62 678.94 530.77 674.77 C 538.92 670.60 544.32 665.23 550.75 658.75 C 557.19 652.27 563.74 648.39 571.92 644.92 C 580.11 641.46 588.81 636.48 598.00 636.00
C 599.16 647.03 598.32 664.64 598.00 675.00 C 597.68 685.36 595.16 708.08 606.25 705.25 C 617.33 702.42 616.47 688.72 626.00 685.00
C 634.17 690.39 637.47 691.87 644.75 700.25 C 652.03 708.62 662.49 705.09 658.93 693.07 C 655.37 681.06 659.50 671.35 658.00 660.00 C 656.50 648.65 657.96 639.58 656.00 629.00 C 654.04 618.42 654.88 609.51 664.99 606.99 C 675.10 604.48 681.80 601.92 690.92 598.92 C 700.05 595.93 706.06 593.04 714.77 589.77 C 723.49 586.50 727.56 583.54 734.75 576.75 C 741.93 569.96 739.90 559.30 740.00 550.00 C 740.11 540.71 741.29 533.18 740.00 523.00 C 738.71 512.82 740.61 500.71 740.00 490.00 C 739.39 479.29 740.38 466.90 740.00 456.00 C 739.62 445.09 740.39 433.93 740.00 423.00 C 739.61 412.07 740.64 399.79 740.00 389.00 C 739.36 378.21 739.78 370.80 740.00 360.00 C 740.22 349.20 739.93 337.71 740.00 327.00 C 740.07 316.29 739.94 308.86 729.22 303.78 C 718.51 298.70 713.27 307.39 714.00 318.00 C 714.73 328.62 714.47 340.76 713.99 350.99 C 713.52 361.22 713.50 368.04 714.00 379.00 C 714.50 389.96 713.72 400.97 714.00 412.00 C 714.28 423.03 713.77 433.88 714.00 445.00 C 714.23 456.12 713.66 467.83 714.00 479.00 C 714.34 490.17 713.30 500.79 714.00 512.00 C 714.70 523.21 712.53 534.72 714.00 546.00 C 715.47 557.28 712.22 564.76 702.23 567.23 C 692.24 569.70 687.14 573.81 678.07 576.07 C 669.01 578.33 662.27 582.77 654.07 586.07 C 645.88 589.38 638.09 591.85 630.23 595.23 C 622.37 598.61 615.71 603.30 607.70 605.70 C 599.68 608.09 592.78 615.13 584.68 616.68 C 576.58 618.22 567.95 624.57 560.01 624.99 C 552.07 625.41 551.49 608.56 548.00 604.00
C 558.54 600.45 570.61 597.91 580.92 593.92 C 591.24 589.94 600.99 585.37 610.92 580.92 C 620.86 576.48 630.48 573.33 639.92 567.92 C 649.36 562.52 660.67 560.42 669.98 554.98 C 679.28 549.53 693.65 552.32 695.00 538.00 C 696.35 523.69 678.96 523.74 669.07 529.07 C 659.19 534.41 648.36 536.13 638.23 540.23 C 628.10 544.32 619.64 550.16 610.03 555.03 C 600.41 559.89 589.45 561.67 580.03 567.02 C 570.60 572.38 559.39 574.72 550.07 580.07 C 540.76 585.43 523.58 580.88 522.00 594.00 Z"/>
</g>
<g fill="rgba(234,234,234,0.688)" fill-opacity="1.00" stroke="None">
<path d="
M 780.00 429.00 
C 761.69 424.04 754.07 450.47 771.98 456.02 C 789.88 461.58 796.45 433.46 780.00 429.00 Z"/>
</g>
<g fill="rgba(234,234,234,0.366)" fill-opacity="1.00" stroke="None">
<path d="
M 211.00 486.00 
C 192.72 484.73 193.23 516.73 211.98 514.98 C 230.72 513.23 226.89 487.10 211.00 486.00 Z"/>
</g>
<g fill="rgba(234,234,234,0.719)" fill-opacity="1.00" stroke="None">
<path d="
M 376.00 662.00 
C 356.55 657.18 349.18 684.73 368.00 690.00 C 386.82 695.27 394.26 666.52 376.00 662.00 Z"/>
</g>
<g fill="rgba(234,234,234,0.884)" fill-opacity="1.00" stroke="None">
<path d="
M 498.00 722.00 
C 477.47 718.83 474.83 754.19 495.00 755.00 C 515.16 755.80 517.13 724.96 498.00 722.00 Z"/>
</g>
</svg>